<svg width="22" height="22" viewBox="0 0 22 22" fill="none" xmlns="http://www.w3.org/2000/svg">
<path d="M11 22C11.8335 22 12.6329 21.7103 13.2223 21.1946C13.8117 20.6789 14.1429 19.9795 14.1429 19.2501H7.85714C7.85714 19.9795 8.18826 20.6789 8.77766 21.1946C9.36706 21.7103 10.1665 22 11 22ZM11 2.63831L9.74757 2.85967C8.32694 3.11293 7.04995 3.78789 6.13274 4.7703C5.21553 5.75271 4.71444 6.98223 4.71429 8.25075C4.71429 9.1142 4.50371 11.2715 3.993 13.3957C3.74157 14.4503 3.40214 15.5489 2.95114 16.5003H19.0489C18.5979 15.5489 18.26 14.4517 18.007 13.3957C17.4963 11.2715 17.2857 9.1142 17.2857 8.25075C17.2852 6.98246 16.7839 5.75327 15.8668 4.77114C14.9496 3.78901 13.6728 3.11426 12.2524 2.86105L11 2.63831ZM20.7743 16.5003C21.1247 17.1149 21.5301 17.6016 22 17.8752H0C0.469857 17.6016 0.875286 17.1149 1.22571 16.5003C2.64 14.0254 3.14286 9.46069 3.14286 8.25075C3.14286 4.92343 5.84571 2.14609 9.43643 1.51225C9.4145 1.32107 9.4386 1.12799 9.5072 0.945464C9.57579 0.762939 9.68734 0.595019 9.83466 0.452533C9.98199 0.310047 10.1618 0.19616 10.3625 0.118215C10.5632 0.0402708 10.7804 0 11 0C11.2196 0 11.4368 0.0402708 11.6375 0.118215C11.8382 0.19616 12.018 0.310047 12.1653 0.452533C12.3127 0.595019 12.4242 0.762939 12.4928 0.945464C12.5614 1.12799 12.5855 1.32107 12.5636 1.51225C14.3397 1.82834 15.9365 2.6718 17.0834 3.8998C18.2303 5.1278 18.8569 6.66488 18.8571 8.25075C18.8571 9.46069 19.36 14.0254 20.7743 16.5003Z" fill="black"/>
</svg>
